HIERARCHY
ROOT Hips
{
    OFFSET 0.000000 0.000000 0.000000
    CHANNELS 6 Xposition Yposition Zposition Zrotation Xrotation Yrotation
    JOINT Spine
    {
        OFFSET -0.000000 7.236184 0.000000
        CHANNELS 3 Zrotation Xrotation Yrotation
        JOINT Spine1
        {
            OFFSET -0.000000 20.420147 0.000000
            CHANNELS 3 Zrotation Xrotation Yrotation
            JOINT Neck
            {
                OFFSET -0.000000 20.336288 1.848754
                CHANNELS 3 Zrotation Xrotation Yrotation
                JOINT Head
                {
                    OFFSET -0.000000 12.354461 -1.764923
                    CHANNELS 3 Zrotation Xrotation Yrotation
                    End Site
                    {
                        OFFSET -0.000000 22.061537 0.000000
                    }
                }
            }
            JOINT LeftShoulder
            {
                OFFSET 3.573296 18.396038 -0.314103
                CHANNELS 3 Zrotation Xrotation Yrotation
                JOINT LeftArm
                {
                    OFFSET 10.880760 0.000000 0.000000
                    CHANNELS 3 Zrotation Xrotation Yrotation
                    JOINT LeftForeArm
                    {
                        OFFSET 27.185530 0.000000 0.000000
                        CHANNELS 3 Zrotation Xrotation Yrotation
                        JOINT LeftHand
                        {
                            OFFSET 27.825975 0.000000 0.000000
                            CHANNELS 3 Zrotation Xrotation Yrotation
                            End Site
                            {
                                OFFSET 13.236923 0.000000 0.000000
                            }
                        }
                    }
                }
            }
            JOINT RightShoulder
            {
                OFFSET -3.474926 18.396038 -0.314103
                CHANNELS 3 Zrotation Xrotation Yrotation
                JOINT RightArm
                {
                    OFFSET -10.880760 0.000000 0.000000
                    CHANNELS 3 Zrotation Xrotation Yrotation
                    JOINT RightForeArm
                    {
                        OFFSET -27.185530 0.000000 0.000000
                        CHANNELS 3 Zrotation Xrotation Yrotation
                        JOINT RightHand
                        {
                            OFFSET -27.825975 0.000000 0.000000
                            CHANNELS 3 Zrotation Xrotation Yrotation
                            End Site
                            {
                                OFFSET -13.236923 0.000000 0.000000
                            }
                        }
                    }
                }
            }
        }
    }
    JOINT LeftUpLeg
    {
        OFFSET 8.824615 0.000000 0.000000
        CHANNELS 3 Zrotation Xrotation Yrotation
        JOINT LeftLeg
        {
            OFFSET -0.000000 -35.111282 0.000000
            CHANNELS 3 Zrotation Xrotation Yrotation
            JOINT LeftFoot
            {
                OFFSET -0.000000 -42.324711 0.000000
                CHANNELS 3 Zrotation Xrotation Yrotation
                JOINT LeftToeBase
                {
                    OFFSET -0.000000 -5.735999 13.236923
                    CHANNELS 3 Zrotation Xrotation Yrotation
                    End Site
                    {
                        OFFSET -0.000000 0.000000 3.529846
                    }
                }
            }
        }
    }
    JOINT RightUpLeg
    {
        OFFSET -8.824615 0.000000 0.000000
        CHANNELS 3 Zrotation Xrotation Yrotation
        JOINT RightLeg
        {
            OFFSET -0.000000 -35.111282 0.000000
            CHANNELS 3 Zrotation Xrotation Yrotation
            JOINT RightFoot
            {
                OFFSET -0.000000 -42.324711 0.000000
                CHANNELS 3 Zrotation Xrotation Yrotation
                JOINT RightToeBase
                {
                    OFFSET -0.000000 -5.735999 13.236923
                    CHANNELS 3 Zrotation Xrotation Yrotation
                    End Site
                    {
                        OFFSET -0.000000 0.000000 3.529846
                    }
                }
            }
        }
    }
}
MOTION
Frames:    7
Frame Time:    0.008333
0.415696    81.461334    103.656700    2.286602    -7.524724    -161.302338    -1.771219    -16.323912    -0.545303    1.347711    8.095900    -0.386857    0.194501    11.002027    -5.325298    7.904886    -9.936325    -3.757268    -0.882949    17.499687    -0.737390    -46.104244    45.450043    -38.676788    0.263301    -4.680851    -18.311571    19.806076    -4.219882    2.404990    6.715976    18.171164    -6.556816    46.603203    44.696960    30.371788    0.993637    -9.850376    14.051085    -15.987500    -9.356846    -4.434182    4.692084    -18.541880    6.115727    -4.730970    23.281488    20.122671    -2.545917    -9.814603    -7.695662    -0.210700    -0.225140    0.233649    -5.450222    -1.455949    5.165458    4.016085    1.988198    1.964440    -1.597809    -6.355013    -12.147640    -2.315337    -1.563956    2.509608    
0.412380    81.458870    103.664207    2.343743    -7.546477    -161.193451    -1.770175    -16.300182    -0.549939    1.367545    8.061892    -0.393021    0.166877    10.974584    -5.327154    7.925261    -9.961113    -3.751598    -0.893408    17.485462    -0.738705    -46.179382    45.433632    -38.612774    0.313677    -4.778500    -18.377045    19.756725    -4.308876    2.413695    6.737185    18.208902    -6.516295    46.792740    44.481136    30.203959    1.037687    -10.058818    13.968544    -15.936194    -9.559105    -4.528874    4.722642    -18.651817    6.098291    -4.725547    23.366295    20.125605    -2.553209    -9.815623    -7.773463    -0.212349    -0.236520    0.235482    -5.394362    -1.491370    5.040383    3.993383    2.017111    1.971177    -1.590648    -6.374690    -12.152958    -2.318356    -1.570005    2.512901    
0.409391    81.456398    103.671906    2.402265    -7.568547    -161.082703    -1.768909    -16.276501    -0.554778    1.387871    8.027817    -0.399127    0.139478    10.946725    -5.329051    7.945274    -9.987220    -3.745936    -0.903201    17.471155    -0.739602    -46.257450    45.416111    -38.546867    0.364323    -4.877490    -18.443661    19.707447    -4.399140    2.422152    6.758562    18.248117    -6.475207    46.982388    44.258316    30.037302    1.082670    -10.275085    13.888346    -15.884431    -9.768690    -4.628529    4.754110    -18.764090    6.079919    -4.720295    23.452673    20.127583    -2.560206    -9.816649    -7.850703    -0.213885    -0.247731    0.237190    -5.336990    -1.527764    4.912298    3.970019    2.046435    1.977550    -1.582851    -6.394572    -12.156979    -2.321660    -1.576118    2.516503    
0.407073    81.453964    103.679871    2.462618    -7.591097    -160.969894    -1.767313    -16.253349    -0.559318    1.408893    7.994280    -0.405637    0.112678    10.916877    -5.331024    7.964707    -10.013806    -3.740464    -0.911322    17.456505    -0.738854    -46.339802    45.397518    -38.479057    0.414887    -4.977691    -18.510927    19.659857    -4.490729    2.429516    6.779556    18.287069    -6.432808    47.173592    44.027390    29.870367    1.129254    -10.504006    13.815044    -15.830494    -9.990016    -4.738049    4.787030    -18.879534    6.059914    -4.715477    23.541437    20.127956    -2.566839    -9.818027    -7.925858    -0.215494    -0.259001    0.238979    -5.277375    -1.565400    4.780217    3.945689    2.075763    1.982899    -1.573952    -6.414294    -12.158261    -2.325459    -1.582431    2.520644    
0.405721    81.451569    103.688240    2.525490    -7.614369    -160.854279    -1.765453    -16.231085    -0.564073    1.431095    7.961658    -0.412072    0.086582    10.884773    -5.333095    7.983576    -10.041577    -3.735192    -0.917197    17.441868    -0.735976    -46.428089    45.376873    -38.408703    0.465511    -5.079460    -18.579157    19.614708    -4.584002    2.435662    6.800233    18.326176    -6.388748    47.366592    43.784382    29.703388    1.178826    -10.750936    13.752357    -15.772689    -10.228034    -4.862383    4.822059    -18.999249    6.037604    -4.711379    23.633177    20.126169    -2.572868    -9.819687    -7.998140    -0.217177    -0.270305    0.240850    -5.214612    -1.604944    4.642411    3.920089    2.105339    1.986447    -1.563566    -6.433827    -12.155160    -2.329815    -1.588780    2.525387    
0.405576    81.449211    103.697136    2.591741    -7.638620    -160.734787    -1.763278    -16.209782    -0.568866    1.454987    7.930011    -0.418551    0.061699    10.849374    -5.335318    8.001045    -10.070841    -3.730305    -0.920049    17.426956    -0.730381    -46.525158    45.353565    -38.334507    0.516436    -5.183538    -18.648298    19.573074    -4.679675    2.440032    6.820204    18.365482    -6.342632    47.562347    43.526100    29.536242    1.232610    -11.022195    13.703840    -15.710274    -10.488565    -5.007322    4.859933    -19.124777    6.012493    -4.708217    23.729084    20.121897    -2.578216    -9.821670    -8.067369    -0.218969    -0.281599    0.242843    -5.147754    -1.646756    4.497090    3.892865    2.135090    1.988518    -1.551398    -6.453159    -12.147452    -2.335013    -1.595441    2.531045    
0.406829    81.446861    103.706718    2.662574    -7.664144    -160.609512    -1.760698    -16.189558    -0.573376    1.481223    7.899644    -0.425335    0.037488    10.809631    -5.337746    8.017701    -10.102109    -3.725683    -0.919765    17.411869    -0.721227    -46.633003    45.326416    -38.255123    0.567870    -5.291433    -18.719378    19.536079    -4.779268    2.442446    6.839514    18.405327    -6.293606    47.762585    43.246964    29.367790    1.292534    -11.325979    13.672931    -15.642560    -10.779315    -5.179473    4.901603    -19.258224    5.983827    -4.706295    23.830761    20.115387    -2.582922    -9.823971    -8.134353    -0.220869    -0.293096    0.244955    -5.075355    -1.691501    4.341238    3.863370    2.165183    1.988241    -1.537060    -6.472310    -12.133305    -2.341025    -1.602309    2.537586    
